<svg width="37" height="37" viewBox="0 0 37 37" fill="none" xmlns="http://www.w3.org/2000/svg">
<path d="M18.5 37C28.7173 37 37 28.7173 37 18.5C37 8.28273 28.7173 0 18.5 0C8.28273 0 0 8.28273 0 18.5C0 28.7173 8.28273 37 18.5 37Z" fill="black"/>
<path fill-rule="evenodd" clip-rule="evenodd" d="M12.226 11.6841C11.9272 11.6841 11.6851 11.9263 11.6851 12.225V24.7748C11.6851 25.0735 11.9272 25.3157 12.226 25.3157H17.697C17.8763 25.3157 18.0217 25.1703 18.0217 24.9911V19.3113C18.0217 19.132 17.8763 18.9867 17.697 18.9867H15.688C15.5087 18.9867 15.3634 18.8414 15.3634 18.6622V18.3376C15.3634 18.1584 15.5087 18.013 15.688 18.013H17.697C17.8763 18.013 18.0217 17.8677 18.0217 17.6884V12.0086C18.0217 11.8294 17.8763 11.6841 17.697 11.6841H12.226ZM19.3044 11.6841C19.1252 11.6841 18.9799 11.8294 18.9799 12.0086V17.6884C18.9799 17.8677 19.1252 18.013 19.3044 18.013H21.3678C21.5471 18.013 21.6924 18.1584 21.6924 18.3376V18.6622C21.6924 18.8414 21.5471 18.9867 21.3678 18.9867H19.3044C19.1252 18.9867 18.9799 19.132 18.9799 19.3113V24.9911C18.9799 25.1703 19.1252 25.3157 19.3044 25.3157H24.7757C25.0744 25.3157 25.3166 25.0735 25.3166 24.7748V12.225C25.3166 11.9263 25.0744 11.6841 24.7757 11.6841H19.3044Z" fill="white"/>
</svg>
