<svg width="53" height="53" viewBox="0 0 53 53" fill="none" xmlns="http://www.w3.org/2000/svg">
<rect x="0.430298" width="52.0695" height="52.0695" rx="8.5" fill="#222222"/>
<path d="M14.0754 32.1019L11.9123 37.87C11.276 39.5669 12.9331 41.2242 14.6301 40.5878L20.3983 38.4246C21.1507 38.1425 21.834 37.7026 22.4022 37.1343L22.947 36.5894L15.9105 29.553L15.3658 30.0979C14.7976 30.6661 14.3576 31.3494 14.0754 32.1019Z" fill="#7E7E7E"/>
<path d="M15.9104 29.553L22.9468 36.5894L36.316 23.2202L29.2796 16.1838L15.9104 29.553Z" fill="#393939"/>
<path d="M38.2563 21.2801L36.3161 23.2202L29.2797 16.1838L31.2199 14.2436C32.8687 12.5949 35.5417 12.5949 37.1904 14.2436L38.2563 15.3095C39.9051 16.9582 39.9051 19.6313 38.2563 21.2801Z" fill="#7E7E7E"/>
</svg>
