<svg width="53" height="53" viewBox="0 0 53 53" fill="none" xmlns="http://www.w3.org/2000/svg">
<rect width="52.0695" height="52.0695" rx="8.5" fill="#222222"/>
<path d="M37.9967 36.308V19.1954L29.0624 13.8126V13.8126C28.2176 13.3036 27.7953 13.0491 27.3441 12.9497C26.9451 12.8618 26.5317 12.8618 26.1327 12.9497C25.6815 13.0491 25.2592 13.3036 24.4144 13.8126L15.4801 19.1955L15.4801 36.308C15.4801 37.8843 15.4801 38.6726 15.7869 39.2746C16.0567 39.8042 16.4873 40.2348 17.0169 40.5046C17.619 40.8114 18.4071 40.8114 19.9834 40.8114H33.4933C35.0696 40.8114 35.8579 40.8114 36.4599 40.5046C36.9895 40.2348 37.4201 39.8042 37.6899 39.2746C37.9967 38.6726 37.9967 37.8843 37.9967 36.308Z" fill="#393939"/>
<path fill-rule="evenodd" clip-rule="evenodd" d="M11.4586 23.2405C11.8584 23.907 12.7229 24.123 13.3893 23.7232L26.7382 15.7139L40.087 23.7232C40.7534 24.123 41.6178 23.907 42.0178 23.2405C42.4176 22.574 42.2015 21.7096 41.5351 21.3097L28.1863 13.3005C27.2949 12.7657 26.1814 12.7657 25.2901 13.3005L11.9413 21.3097C11.2748 21.7096 11.0587 22.574 11.4586 23.2405Z" fill="#7E7E7E"/>
<path d="M22.5165 32.3675C22.5165 30.0358 24.4066 28.1457 26.7383 28.1457C29.0701 28.1457 30.9602 30.0358 30.9602 32.3675V40.8113H22.5165L22.5165 32.3675Z" fill="#7E7E7E"/>
</svg>
