<svg width="53" height="53" viewBox="0 0 53 53" fill="none" xmlns="http://www.w3.org/2000/svg">
<rect x="0.215332" width="52.0695" height="52.0695" rx="8.5" fill="#222222"/>
<path d="M19.9172 37.9967C19.9172 37.2194 20.5473 36.5894 21.3245 36.5894H29.7682C30.5455 36.5894 31.1755 37.2194 31.1755 37.9967V39.404C31.1755 41.7357 29.2854 43.6258 26.9537 43.6258H24.1391C21.8074 43.6258 19.9172 41.7357 19.9172 39.404V37.9967Z" fill="#7E7E7E"/>
<path d="M36.8046 21.1093C36.8046 24.6647 35.1566 27.8351 32.5828 29.8983V30.9603C32.5828 32.5148 31.3227 33.7749 29.7682 33.7749C23.908 33.7749 30.4909 33.7749 21.3245 33.7749C19.7701 33.7749 18.5099 32.5148 18.5099 30.9603V29.8983C15.9361 27.8351 14.2881 24.6647 14.2881 21.1093C14.2881 14.8915 19.3286 9.85101 25.5464 9.85101C31.7642 9.85101 36.8046 14.8915 36.8046 21.1093Z" fill="#393939"/>
<path d="M23.727 21.5215C23.1774 20.9719 22.2864 20.9719 21.7368 21.5215C21.1872 22.071 21.1872 22.9621 21.7368 23.5117L24.1392 25.914L24.1392 33.7748H26.9537V25.914L29.3561 23.5117C29.9056 22.9621 29.9056 22.071 29.3561 21.5215C28.8066 20.9719 27.9155 20.9719 27.3659 21.5215L25.5464 23.3409L23.727 21.5215Z" fill="#7E7E7E"/>
</svg>
