<svg width="48" height="57" viewBox="0 0 48 57" fill="none" xmlns="http://www.w3.org/2000/svg">
<path d="M3.4375 23.7656H6.5625L6.57812 2.3125H3.4375V1.09375H23.6406V7.90625H22.4219C22.3698 7.04167 22.2969 6.27604 22.2031 5.60938C22.1094 4.93229 21.9115 4.35938 21.6094 3.89062C21.0052 2.93229 19.776 2.40625 17.9219 2.3125H10.7812V12.125H14.6875C15.5729 12.125 16.25 11.9844 16.7188 11.7031C17.1979 11.4115 17.4896 10.9062 17.5938 10.1875C17.6146 9.97917 17.6302 9.76042 17.6406 9.53125C17.6615 9.29167 17.6823 9.05729 17.7031 8.82812H19.0156V16.8906H17.7031C17.6823 16.651 17.6615 16.375 17.6406 16.0625C17.6302 15.75 17.6146 15.4896 17.5938 15.2812C17.4896 14.5625 17.1927 14.0625 16.7031 13.7812C16.224 13.4896 15.5521 13.3438 14.6875 13.3438H10.7812V23.7812H17.4688C20.2083 23.7812 21.8698 22.5156 22.4531 19.9844C22.6198 19.2552 22.7292 18.5052 22.7812 17.7344H24V25H3.4375V23.7656Z" fill="#181818"/>
<path d="M31.125 23.1875C30.6979 23.6667 30.4844 24.2708 30.4844 25H29.0938V18.625H30.7031C31.1094 20.2292 31.9531 21.5312 33.2344 22.5312C34.526 23.5208 36.0833 24.0156 37.9062 24.0156C40.1875 24.0156 41.7135 23.3854 42.4844 22.125C42.7344 21.6979 42.8594 21.2188 42.8594 20.6875C42.8594 19.5521 42.4583 18.5781 41.6562 17.7656C40.8542 16.9531 39.4792 16.1927 37.5312 15.4844C35.5938 14.7656 34.125 14.1094 33.125 13.5156C32.1354 12.9219 31.3542 12.2969 30.7812 11.6406C29.7708 10.4844 29.2656 8.96875 29.2656 7.09375C29.2656 5.21875 30.0677 3.69792 31.6719 2.53125C33.2865 1.36458 35.2448 0.78125 37.5469 0.78125C38.849 0.78125 39.9531 0.932292 40.8594 1.23438C41.776 1.53646 42.474 1.89062 42.9531 2.29688C43.2031 1.93229 43.3385 1.53125 43.3594 1.09375H44.8125V6.90625H43.3125C43.1562 5.36458 42.5104 4.17708 41.375 3.34375C40.25 2.5 38.9427 2.07812 37.4531 2.07812C35.974 2.07812 34.7656 2.38542 33.8281 3C32.8906 3.60417 32.4219 4.43229 32.4219 5.48438C32.4219 6.53646 32.8594 7.45833 33.7344 8.25C34.6094 9.04167 36.3958 10.0312 39.0938 11.2188C41.625 12.25 43.3906 13.2969 44.3906 14.3594C45.3906 15.4115 45.8906 16.7135 45.8906 18.2656C45.8906 20.4531 45.1198 22.1771 43.5781 23.4375C42.0469 24.6875 40.1875 25.3125 38 25.3125C35.8229 25.3125 33.9271 24.875 32.3125 24C31.8333 23.7396 31.4375 23.4688 31.125 23.1875Z" fill="#181818"/>
<path d="M2.875 33.3125H0.78125V32.0938H10.7812V33.3125H7.76562L14.6875 51.0469L21.1875 33.3125H18.25V32.0938H25.2812V33.3125H22.875L14.2031 56.3125H12.875L2.875 33.3125Z" fill="#181818"/>
<path d="M26.7031 54.7812H29.3594L29.375 33.3125H26.7031V32.0938H38.4844C40.9323 32.0938 42.75 32.6562 43.9375 33.7812C45.1354 34.8958 45.7344 36.3333 45.7344 38.0938C45.7344 40.1458 44.7865 41.6615 42.8906 42.6406C42.3281 42.9323 41.7344 43.1615 41.1094 43.3281C43.1198 43.5677 44.6562 44.2135 45.7188 45.2656C46.7812 46.3177 47.3125 47.6094 47.3125 49.1406C47.3125 51.2448 46.5417 52.9167 45 54.1562C43.4688 55.3854 41.276 56 38.4219 56H26.7031V54.7812ZM37.4062 43C39.6667 43 41.0156 42.0312 41.4531 40.0938C41.5885 39.5104 41.6562 38.8854 41.6562 38.2188C41.6562 36.6354 41.401 35.4896 40.8906 34.7812C40.2031 33.8021 38.901 33.3125 36.9844 33.3125H33.5781V43H37.4062ZM37.2031 54.7812C39.099 54.7812 40.5469 54.3281 41.5469 53.4219C42.5573 52.5156 43.0625 51.2292 43.0625 49.5625C43.0625 47.1146 42.0885 45.4792 40.1406 44.6562C39.4323 44.3542 38.5677 44.2031 37.5469 44.2031H33.5781V54.7812H37.2031Z" fill="#181818"/>
</svg>
