<svg width="208" height="208" viewBox="0 0 208 208" fill="none" xmlns="http://www.w3.org/2000/svg">
<rect x="18" y="18" width="190" height="190" rx="46" fill="#F5A97F"/>
<rect x="12" y="12" width="190" height="190" rx="46" fill="#EE99A0"/>
<rect x="6" y="6" width="190" height="190" rx="46" fill="#ED8796"/>
<rect width="190" height="190" rx="46" fill="#7DC4E4"/>
<path d="M97.3845 146C86.9373 146 77.9448 143.922 70.4069 139.765C62.9132 135.566 57.1386 129.634 53.0832 121.971C49.0277 114.264 47 105.151 47 94.6299C47 84.3688 49.0277 75.3634 53.0832 67.6135C57.1386 59.8636 62.8471 53.8239 70.2086 49.4943C77.6142 45.1648 86.2981 43 96.2604 43C102.961 43 109.198 44.0607 114.973 46.1822C120.791 48.2604 125.861 51.3993 130.181 55.599C134.545 59.7987 137.939 65.0807 140.363 71.4451C142.788 77.7663 144 85.1698 144 93.6557V101.254H58.2406V84.1091H117.485C117.485 80.1259 116.604 76.5973 114.84 73.5233C113.077 70.4493 110.631 68.0464 107.501 66.3146C104.415 64.5395 100.823 63.652 96.7232 63.652C92.4474 63.652 88.6564 64.6261 85.3504 66.5744C82.0884 68.4794 79.5317 71.0555 77.6803 74.3026C75.8289 77.5065 74.8812 81.0784 74.8371 85.0183V101.319C74.8371 106.255 75.7628 110.519 77.6142 114.113C79.5097 117.706 82.1765 120.477 85.6149 122.426C89.0532 124.374 93.1306 125.348 97.8473 125.348C100.977 125.348 103.842 124.915 106.443 124.049C109.044 123.183 111.27 121.884 113.121 120.153C114.973 118.421 116.383 116.299 117.353 113.788L143.405 115.477C142.082 121.625 139.372 126.993 135.272 131.583C131.217 136.129 125.971 139.679 119.535 142.233C113.143 144.744 105.76 146 97.3845 146Z" fill="white"/>
</svg>
